<?xml version="1.0" standalone="no"?>
 <!DOCTYPE svg PUBLIC "-//W3C//DTD SVG 1.1//EN" 
 "http://www.w3.org/Graphics/SVG/1.1/DTD/svg11.dtd"> 
<svg
  xmlns:svg="http://www.w3.org/2000/svg"
  xmlns="http://www.w3.org/2000/svg"
  xmlns:xlink="http://www.w3.org/1999/xlink"
  xmlns:inkscape="http://www.inkscape.org/namespaces/inkscape"
  version="1.1"
  width="79.9846mm" height="49.9872mm" viewBox="0.0000 0.0000 79.9846 49.9872">
<title>SVG Image created as SedentaryDetector_pcb.svg date 2026-06-20T16:41:47 </title>
  <desc>Image generated by PCBNEW </desc>
<g style="fill:#000000; fill-opacity:1.0000;stroke:#000000; stroke-opacity:1.0000;
stroke-linecap:round; stroke-linejoin:round;"
 transform="translate(0 0) scale(1 1)">
</g>
<g style="fill:none; 
stroke:#C872AB; stroke-width:0.1500; stroke-opacity:1; 
stroke-linecap:round; stroke-linejoin:round;">
<path d="M0.0000 31.0000
L108.0000 31.0000
L108.0000 63.0000
L0.0000 63.0000
L0.0000 31.0000
" />
<path d="M50.0000 35.0000
L110.0000 35.0000
L110.0000 65.0000
L50.0000 65.0000
L50.0000 35.0000
" />
<path d="M52.0000 37.0000
L108.0000 37.0000
L108.0000 63.0000
L52.0000 63.0000
L52.0000 37.0000
" />
<path d="M100.0000 37.0000
L100.0000 35.0000
" />
<text x="75.0000" y="36.6500"
textLength="1.4281" font-size="1.7333" lengthAdjust="spacingAndGlyphs"
text-anchor="start" opacity="0" stroke-opacity="0">1</text>
<g class="stroked-text"><desc>1</desc>
<path d="M76.0892 36.5936
L75.3463 36.5936
" />
<path d="M75.7177 36.5936
L75.7177 35.2936
" />
<path d="M75.7177 35.2936
L75.5939 35.4793
" />
<path d="M75.5939 35.4793
L75.4701 35.6031
" />
<path d="M75.4701 35.6031
L75.3463 35.6650
" />
</g><path d="M100.0000 63.0000
L100.0000 65.0000
" />
<text x="75.0000" y="64.6500"
textLength="1.4281" font-size="1.7333" lengthAdjust="spacingAndGlyphs"
text-anchor="start" opacity="0" stroke-opacity="0">1</text>
<g class="stroked-text"><desc>1</desc>
<path d="M76.0892 64.5936
L75.3463 64.5936
" />
<path d="M75.7177 64.5936
L75.7177 63.2936
" />
<path d="M75.7177 63.2936
L75.5939 63.4793
" />
<path d="M75.5939 63.4793
L75.4701 63.6031
" />
<path d="M75.4701 63.6031
L75.3463 63.6650
" />
</g><path d="M50.0000 85.0000
L52.0000 85.0000
" />
<text x="51.0000" y="60.6500"
textLength="1.3043" font-size="1.7333" lengthAdjust="spacingAndGlyphs"
text-anchor="middle" opacity="0" stroke-opacity="0">A</text>
<g class="stroked-text"><desc>A</desc>
<path d="M50.6905 60.2222
L51.3095 60.2222
" />
<path d="M50.5667 60.5936
L51.0000 59.2936
" />
<path d="M51.0000 59.2936
L51.4333 60.5936
" />
</g><path d="M110.0000 85.0000
L108.0000 85.0000
" />
<text x="109.0000" y="60.6500"
textLength="1.3043" font-size="1.7333" lengthAdjust="spacingAndGlyphs"
text-anchor="middle" opacity="0" stroke-opacity="0">A</text>
<g class="stroked-text"><desc>A</desc>
<path d="M108.6905 60.2222
L109.3095 60.2222
" />
<path d="M108.5667 60.5936
L109.0000 59.2936
" />
<path d="M109.0000 59.2936
L109.4333 60.5936
" />
</g><text x="23.0000" y="58.8500"
textLength="7.0071" font-size="2.0000" lengthAdjust="spacingAndGlyphs"
text-anchor="start" opacity="0" stroke-opacity="0">Date: </text>
<g class="stroked-text"><desc>Date: </desc>
<path d="M23.4558 58.7861
L23.4558 57.2861
" />
<path d="M23.4558 57.2861
L23.8130 57.2861
" />
<path d="M23.8130 57.2861
L24.0273 57.3576
" />
<path d="M24.0273 57.3576
L24.1701 57.5004
" />
<path d="M24.1701 57.5004
L24.2415 57.6433
" />
<path d="M24.2415 57.6433
L24.3130 57.9290
" />
<path d="M24.3130 57.9290
L24.3130 58.1433
" />
<path d="M24.3130 58.1433
L24.2415 58.4290
" />
<path d="M24.2415 58.4290
L24.1701 58.5718
" />
<path d="M24.1701 58.5718
L24.0273 58.7147
" />
<path d="M24.0273 58.7147
L23.8130 58.7861
" />
<path d="M23.8130 58.7861
L23.4558 58.7861
" />
<path d="M25.5987 58.7861
L25.5987 58.0004
" />
<path d="M25.5987 58.0004
L25.5273 57.8576
" />
<path d="M25.5273 57.8576
L25.3844 57.7861
" />
<path d="M25.3844 57.7861
L25.0987 57.7861
" />
<path d="M25.0987 57.7861
L24.9558 57.8576
" />
<path d="M25.5987 58.7147
L25.4558 58.7861
" />
<path d="M25.4558 58.7861
L25.0987 58.7861
" />
<path d="M25.0987 58.7861
L24.9558 58.7147
" />
<path d="M24.9558 58.7147
L24.8844 58.5718
" />
<path d="M24.8844 58.5718
L24.8844 58.4290
" />
<path d="M24.8844 58.4290
L24.9558 58.2861
" />
<path d="M24.9558 58.2861
L25.0987 58.2147
" />
<path d="M25.0987 58.2147
L25.4558 58.2147
" />
<path d="M25.4558 58.2147
L25.5987 58.1433
" />
<path d="M26.0987 57.7861
L26.6701 57.7861
" />
<path d="M26.3130 57.2861
L26.3130 58.5718
" />
<path d="M26.3130 58.5718
L26.3844 58.7147
" />
<path d="M26.3844 58.7147
L26.5273 58.7861
" />
<path d="M26.5273 58.7861
L26.6701 58.7861
" />
<path d="M27.7415 58.7147
L27.5987 58.7861
" />
<path d="M27.5987 58.7861
L27.3130 58.7861
" />
<path d="M27.3130 58.7861
L27.1701 58.7147
" />
<path d="M27.1701 58.7147
L27.0987 58.5718
" />
<path d="M27.0987 58.5718
L27.0987 58.0004
" />
<path d="M27.0987 58.0004
L27.1701 57.8576
" />
<path d="M27.1701 57.8576
L27.3130 57.7861
" />
<path d="M27.3130 57.7861
L27.5987 57.7861
" />
<path d="M27.5987 57.7861
L27.7415 57.8576
" />
<path d="M27.7415 57.8576
L27.8130 58.0004
" />
<path d="M27.8130 58.0004
L27.8130 58.1433
" />
<path d="M27.8130 58.1433
L27.0987 58.2861
" />
<path d="M28.4558 58.6433
L28.5273 58.7147
" />
<path d="M28.5273 58.7147
L28.4558 58.7861
" />
<path d="M28.4558 58.7861
L28.3844 58.7147
" />
<path d="M28.3844 58.7147
L28.4558 58.6433
" />
<path d="M28.4558 58.6433
L28.4558 58.7861
" />
<path d="M28.4558 57.8576
L28.5273 57.9290
" />
<path d="M28.5273 57.9290
L28.4558 58.0004
" />
<path d="M28.4558 58.0004
L28.3844 57.9290
" />
<path d="M28.3844 57.9290
L28.4558 57.8576
" />
<path d="M28.4558 57.8576
L28.4558 58.0004
" />
</g><path d="M0.0000 59.5000
L108.0000 59.5000
" />
<text x="1.0000" y="61.6500"
textLength="22.2929" font-size="2.0000" lengthAdjust="spacingAndGlyphs"
text-anchor="start" opacity="0" stroke-opacity="0">KiCad E.D.A. 10.0.4</text>
<g class="stroked-text"><desc>KiCad E.D.A. 10.0.4</desc>
<path d="M1.4558 61.5861
L1.4558 60.0861
" />
<path d="M2.3130 61.5861
L1.6701 60.7290
" />
<path d="M2.3130 60.0861
L1.4558 60.9433
" />
<path d="M2.9558 61.5861
L2.9558 60.5861
" />
<path d="M2.9558 60.0861
L2.8844 60.1576
" />
<path d="M2.8844 60.1576
L2.9558 60.2290
" />
<path d="M2.9558 60.2290
L3.0273 60.1576
" />
<path d="M3.0273 60.1576
L2.9558 60.0861
" />
<path d="M2.9558 60.0861
L2.9558 60.2290
" />
<path d="M4.5273 61.4433
L4.4558 61.5147
" />
<path d="M4.4558 61.5147
L4.2415 61.5861
" />
<path d="M4.2415 61.5861
L4.0987 61.5861
" />
<path d="M4.0987 61.5861
L3.8844 61.5147
" />
<path d="M3.8844 61.5147
L3.7415 61.3718
" />
<path d="M3.7415 61.3718
L3.6701 61.2290
" />
<path d="M3.6701 61.2290
L3.5987 60.9433
" />
<path d="M3.5987 60.9433
L3.5987 60.7290
" />
<path d="M3.5987 60.7290
L3.6701 60.4433
" />
<path d="M3.6701 60.4433
L3.7415 60.3004
" />
<path d="M3.7415 60.3004
L3.8844 60.1576
" />
<path d="M3.8844 60.1576
L4.0987 60.0861
" />
<path d="M4.0987 60.0861
L4.2415 60.0861
" />
<path d="M4.2415 60.0861
L4.4558 60.1576
" />
<path d="M4.4558 60.1576
L4.5273 60.2290
" />
<path d="M5.8130 61.5861
L5.8130 60.8004
" />
<path d="M5.8130 60.8004
L5.7415 60.6576
" />
<path d="M5.7415 60.6576
L5.5987 60.5861
" />
<path d="M5.5987 60.5861
L5.3130 60.5861
" />
<path d="M5.3130 60.5861
L5.1701 60.6576
" />
<path d="M5.8130 61.5147
L5.6701 61.5861
" />
<path d="M5.6701 61.5861
L5.3130 61.5861
" />
<path d="M5.3130 61.5861
L5.1701 61.5147
" />
<path d="M5.1701 61.5147
L5.0987 61.3718
" />
<path d="M5.0987 61.3718
L5.0987 61.2290
" />
<path d="M5.0987 61.2290
L5.1701 61.0861
" />
<path d="M5.1701 61.0861
L5.3130 61.0147
" />
<path d="M5.3130 61.0147
L5.6701 61.0147
" />
<path d="M5.6701 61.0147
L5.8130 60.9433
" />
<path d="M7.1701 61.5861
L7.1701 60.0861
" />
<path d="M7.1701 61.5147
L7.0273 61.5861
" />
<path d="M7.0273 61.5861
L6.7415 61.5861
" />
<path d="M6.7415 61.5861
L6.5987 61.5147
" />
<path d="M6.5987 61.5147
L6.5273 61.4433
" />
<path d="M6.5273 61.4433
L6.4558 61.3004
" />
<path d="M6.4558 61.3004
L6.4558 60.8718
" />
<path d="M6.4558 60.8718
L6.5273 60.7290
" />
<path d="M6.5273 60.7290
L6.5987 60.6576
" />
<path d="M6.5987 60.6576
L6.7415 60.5861
" />
<path d="M6.7415 60.5861
L7.0273 60.5861
" />
<path d="M7.0273 60.5861
L7.1701 60.6576
" />
<path d="M9.0273 60.8004
L9.5273 60.8004
" />
<path d="M9.7415 61.5861
L9.0273 61.5861
" />
<path d="M9.0273 61.5861
L9.0273 60.0861
" />
<path d="M9.0273 60.0861
L9.7415 60.0861
" />
<path d="M10.3844 61.4433
L10.4558 61.5147
" />
<path d="M10.4558 61.5147
L10.3844 61.5861
" />
<path d="M10.3844 61.5861
L10.3130 61.5147
" />
<path d="M10.3130 61.5147
L10.3844 61.4433
" />
<path d="M10.3844 61.4433
L10.3844 61.5861
" />
<path d="M11.0987 61.5861
L11.0987 60.0861
" />
<path d="M11.0987 60.0861
L11.4558 60.0861
" />
<path d="M11.4558 60.0861
L11.6701 60.1576
" />
<path d="M11.6701 60.1576
L11.8130 60.3004
" />
<path d="M11.8130 60.3004
L11.8844 60.4433
" />
<path d="M11.8844 60.4433
L11.9558 60.7290
" />
<path d="M11.9558 60.7290
L11.9558 60.9433
" />
<path d="M11.9558 60.9433
L11.8844 61.2290
" />
<path d="M11.8844 61.2290
L11.8130 61.3718
" />
<path d="M11.8130 61.3718
L11.6701 61.5147
" />
<path d="M11.6701 61.5147
L11.4558 61.5861
" />
<path d="M11.4558 61.5861
L11.0987 61.5861
" />
<path d="M12.5987 61.4433
L12.6701 61.5147
" />
<path d="M12.6701 61.5147
L12.5987 61.5861
" />
<path d="M12.5987 61.5861
L12.5273 61.5147
" />
<path d="M12.5273 61.5147
L12.5987 61.4433
" />
<path d="M12.5987 61.4433
L12.5987 61.5861
" />
<path d="M13.2415 61.1576
L13.9558 61.1576
" />
<path d="M13.0987 61.5861
L13.5987 60.0861
" />
<path d="M13.5987 60.0861
L14.0987 61.5861
" />
<path d="M14.5987 61.4433
L14.6701 61.5147
" />
<path d="M14.6701 61.5147
L14.5987 61.5861
" />
<path d="M14.5987 61.5861
L14.5273 61.5147
" />
<path d="M14.5273 61.5147
L14.5987 61.4433
" />
<path d="M14.5987 61.4433
L14.5987 61.5861
" />
<path d="M17.2415 61.5861
L16.3844 61.5861
" />
<path d="M16.8130 61.5861
L16.8130 60.0861
" />
<path d="M16.8130 60.0861
L16.6701 60.3004
" />
<path d="M16.6701 60.3004
L16.5273 60.4433
" />
<path d="M16.5273 60.4433
L16.3844 60.5147
" />
<path d="M18.1701 60.0861
L18.3130 60.0861
" />
<path d="M18.3130 60.0861
L18.4558 60.1576
" />
<path d="M18.4558 60.1576
L18.5273 60.2290
" />
<path d="M18.5273 60.2290
L18.5987 60.3718
" />
<path d="M18.5987 60.3718
L18.6701 60.6576
" />
<path d="M18.6701 60.6576
L18.6701 61.0147
" />
<path d="M18.6701 61.0147
L18.5987 61.3004
" />
<path d="M18.5987 61.3004
L18.5273 61.4433
" />
<path d="M18.5273 61.4433
L18.4558 61.5147
" />
<path d="M18.4558 61.5147
L18.3130 61.5861
" />
<path d="M18.3130 61.5861
L18.1701 61.5861
" />
<path d="M18.1701 61.5861
L18.0273 61.5147
" />
<path d="M18.0273 61.5147
L17.9558 61.4433
" />
<path d="M17.9558 61.4433
L17.8844 61.3004
" />
<path d="M17.8844 61.3004
L17.8130 61.0147
" />
<path d="M17.8130 61.0147
L17.8130 60.6576
" />
<path d="M17.8130 60.6576
L17.8844 60.3718
" />
<path d="M17.8844 60.3718
L17.9558 60.2290
" />
<path d="M17.9558 60.2290
L18.0273 60.1576
" />
<path d="M18.0273 60.1576
L18.1701 60.0861
" />
<path d="M19.3130 61.4433
L19.3844 61.5147
" />
<path d="M19.3844 61.5147
L19.3130 61.5861
" />
<path d="M19.3130 61.5861
L19.2415 61.5147
" />
<path d="M19.2415 61.5147
L19.3130 61.4433
" />
<path d="M19.3130 61.4433
L19.3130 61.5861
" />
<path d="M20.3130 60.0861
L20.4558 60.0861
" />
<path d="M20.4558 60.0861
L20.5987 60.1576
" />
<path d="M20.5987 60.1576
L20.6701 60.2290
" />
<path d="M20.6701 60.2290
L20.7415 60.3718
" />
<path d="M20.7415 60.3718
L20.8130 60.6576
" />
<path d="M20.8130 60.6576
L20.8130 61.0147
" />
<path d="M20.8130 61.0147
L20.7415 61.3004
" />
<path d="M20.7415 61.3004
L20.6701 61.4433
" />
<path d="M20.6701 61.4433
L20.5987 61.5147
" />
<path d="M20.5987 61.5147
L20.4558 61.5861
" />
<path d="M20.4558 61.5861
L20.3130 61.5861
" />
<path d="M20.3130 61.5861
L20.1701 61.5147
" />
<path d="M20.1701 61.5147
L20.0987 61.4433
" />
<path d="M20.0987 61.4433
L20.0273 61.3004
" />
<path d="M20.0273 61.3004
L19.9558 61.0147
" />
<path d="M19.9558 61.0147
L19.9558 60.6576
" />
<path d="M19.9558 60.6576
L20.0273 60.3718
" />
<path d="M20.0273 60.3718
L20.0987 60.2290
" />
<path d="M20.0987 60.2290
L20.1701 60.1576
" />
<path d="M20.1701 60.1576
L20.3130 60.0861
" />
<path d="M21.4558 61.4433
L21.5273 61.5147
" />
<path d="M21.5273 61.5147
L21.4558 61.5861
" />
<path d="M21.4558 61.5861
L21.3844 61.5147
" />
<path d="M21.3844 61.5147
L21.4558 61.4433
" />
<path d="M21.4558 61.4433
L21.4558 61.5861
" />
<path d="M22.8130 60.5861
L22.8130 61.5861
" />
<path d="M22.4558 60.0147
L22.0987 61.0861
" />
<path d="M22.0987 61.0861
L23.0273 61.0861
" />
</g><path d="M0.0000 56.5000
L108.0000 56.5000
" />
</g>
<g style="fill:none; 
stroke:#C872AB; stroke-width:0.3000; stroke-opacity:1; 
stroke-linecap:round; stroke-linejoin:round;">
<text x="86.0000" y="58.8500"
textLength="6.3857" font-size="2.0000" lengthAdjust="spacingAndGlyphs"
text-anchor="start" opacity="0" stroke-opacity="0">Rev: </text>
<g class="stroked-text"><desc>Rev: </desc>
<path d="M87.4117 58.7783
L86.9117 58.0640
" />
<path d="M86.5545 58.7783
L86.5545 57.2783
" />
<path d="M86.5545 57.2783
L87.1259 57.2783
" />
<path d="M87.1259 57.2783
L87.2688 57.3498
" />
<path d="M87.2688 57.3498
L87.3402 57.4212
" />
<path d="M87.3402 57.4212
L87.4117 57.5640
" />
<path d="M87.4117 57.5640
L87.4117 57.7783
" />
<path d="M87.4117 57.7783
L87.3402 57.9212
" />
<path d="M87.3402 57.9212
L87.2688 57.9926
" />
<path d="M87.2688 57.9926
L87.1259 58.0640
" />
<path d="M87.1259 58.0640
L86.5545 58.0640
" />
<path d="M88.6259 58.7069
L88.4831 58.7783
" />
<path d="M88.4831 58.7783
L88.1974 58.7783
" />
<path d="M88.1974 58.7783
L88.0545 58.7069
" />
<path d="M88.0545 58.7069
L87.9831 58.5640
" />
<path d="M87.9831 58.5640
L87.9831 57.9926
" />
<path d="M87.9831 57.9926
L88.0545 57.8498
" />
<path d="M88.0545 57.8498
L88.1974 57.7783
" />
<path d="M88.1974 57.7783
L88.4831 57.7783
" />
<path d="M88.4831 57.7783
L88.6259 57.8498
" />
<path d="M88.6259 57.8498
L88.6974 57.9926
" />
<path d="M88.6974 57.9926
L88.6974 58.1355
" />
<path d="M88.6974 58.1355
L87.9831 58.2783
" />
<path d="M89.1974 57.7783
L89.5545 58.7783
" />
<path d="M89.5545 58.7783
L89.9117 57.7783
" />
<path d="M90.4831 58.6355
L90.5545 58.7069
" />
<path d="M90.5545 58.7069
L90.4831 58.7783
" />
<path d="M90.4831 58.7783
L90.4117 58.7069
" />
<path d="M90.4117 58.7069
L90.4831 58.6355
" />
<path d="M90.4831 58.6355
L90.4831 58.7783
" />
<path d="M90.4831 57.8498
L90.5545 57.9212
" />
<path d="M90.5545 57.9212
L90.4831 57.9926
" />
<path d="M90.4831 57.9926
L90.4117 57.9212
" />
<path d="M90.4117 57.9212
L90.4831 57.8498
" />
<path d="M90.4831 57.8498
L90.4831 57.9926
" />
</g></g>
<g style="fill:none; 
stroke:#C872AB; stroke-width:0.1500; stroke-opacity:1; 
stroke-linecap:round; stroke-linejoin:round;">
<text x="1.0000" y="58.8500"
textLength="11.6500" font-size="2.0000" lengthAdjust="spacingAndGlyphs"
text-anchor="start" opacity="0" stroke-opacity="0">Size: User</text>
<g class="stroked-text"><desc>Size: User</desc>
<path d="M1.3844 58.7147
L1.5987 58.7861
" />
<path d="M1.5987 58.7861
L1.9558 58.7861
" />
<path d="M1.9558 58.7861
L2.0987 58.7147
" />
<path d="M2.0987 58.7147
L2.1701 58.6433
" />
<path d="M2.1701 58.6433
L2.2415 58.5004
" />
<path d="M2.2415 58.5004
L2.2415 58.3576
" />
<path d="M2.2415 58.3576
L2.1701 58.2147
" />
<path d="M2.1701 58.2147
L2.0987 58.1433
" />
<path d="M2.0987 58.1433
L1.9558 58.0718
" />
<path d="M1.9558 58.0718
L1.6701 58.0004
" />
<path d="M1.6701 58.0004
L1.5273 57.9290
" />
<path d="M1.5273 57.9290
L1.4558 57.8576
" />
<path d="M1.4558 57.8576
L1.3844 57.7147
" />
<path d="M1.3844 57.7147
L1.3844 57.5718
" />
<path d="M1.3844 57.5718
L1.4558 57.4290
" />
<path d="M1.4558 57.4290
L1.5273 57.3576
" />
<path d="M1.5273 57.3576
L1.6701 57.2861
" />
<path d="M1.6701 57.2861
L2.0273 57.2861
" />
<path d="M2.0273 57.2861
L2.2415 57.3576
" />
<path d="M2.8844 58.7861
L2.8844 57.7861
" />
<path d="M2.8844 57.2861
L2.8130 57.3576
" />
<path d="M2.8130 57.3576
L2.8844 57.4290
" />
<path d="M2.8844 57.4290
L2.9558 57.3576
" />
<path d="M2.9558 57.3576
L2.8844 57.2861
" />
<path d="M2.8844 57.2861
L2.8844 57.4290
" />
<path d="M3.4558 57.7861
L4.2415 57.7861
" />
<path d="M4.2415 57.7861
L3.4558 58.7861
" />
<path d="M3.4558 58.7861
L4.2415 58.7861
" />
<path d="M5.3844 58.7147
L5.2415 58.7861
" />
<path d="M5.2415 58.7861
L4.9558 58.7861
" />
<path d="M4.9558 58.7861
L4.8130 58.7147
" />
<path d="M4.8130 58.7147
L4.7415 58.5718
" />
<path d="M4.7415 58.5718
L4.7415 58.0004
" />
<path d="M4.7415 58.0004
L4.8130 57.8576
" />
<path d="M4.8130 57.8576
L4.9558 57.7861
" />
<path d="M4.9558 57.7861
L5.2415 57.7861
" />
<path d="M5.2415 57.7861
L5.3844 57.8576
" />
<path d="M5.3844 57.8576
L5.4558 58.0004
" />
<path d="M5.4558 58.0004
L5.4558 58.1433
" />
<path d="M5.4558 58.1433
L4.7415 58.2861
" />
<path d="M6.0987 58.6433
L6.1701 58.7147
" />
<path d="M6.1701 58.7147
L6.0987 58.7861
" />
<path d="M6.0987 58.7861
L6.0273 58.7147
" />
<path d="M6.0273 58.7147
L6.0987 58.6433
" />
<path d="M6.0987 58.6433
L6.0987 58.7861
" />
<path d="M6.0987 57.8576
L6.1701 57.9290
" />
<path d="M6.1701 57.9290
L6.0987 58.0004
" />
<path d="M6.0987 58.0004
L6.0273 57.9290
" />
<path d="M6.0273 57.9290
L6.0987 57.8576
" />
<path d="M6.0987 57.8576
L6.0987 58.0004
" />
<path d="M7.9558 57.2861
L7.9558 58.5004
" />
<path d="M7.9558 58.5004
L8.0273 58.6433
" />
<path d="M8.0273 58.6433
L8.0987 58.7147
" />
<path d="M8.0987 58.7147
L8.2415 58.7861
" />
<path d="M8.2415 58.7861
L8.5273 58.7861
" />
<path d="M8.5273 58.7861
L8.6701 58.7147
" />
<path d="M8.6701 58.7147
L8.7415 58.6433
" />
<path d="M8.7415 58.6433
L8.8130 58.5004
" />
<path d="M8.8130 58.5004
L8.8130 57.2861
" />
<path d="M9.4558 58.7147
L9.5987 58.7861
" />
<path d="M9.5987 58.7861
L9.8844 58.7861
" />
<path d="M9.8844 58.7861
L10.0273 58.7147
" />
<path d="M10.0273 58.7147
L10.0987 58.5718
" />
<path d="M10.0987 58.5718
L10.0987 58.5004
" />
<path d="M10.0987 58.5004
L10.0273 58.3576
" />
<path d="M10.0273 58.3576
L9.8844 58.2861
" />
<path d="M9.8844 58.2861
L9.6701 58.2861
" />
<path d="M9.6701 58.2861
L9.5273 58.2147
" />
<path d="M9.5273 58.2147
L9.4558 58.0718
" />
<path d="M9.4558 58.0718
L9.4558 58.0004
" />
<path d="M9.4558 58.0004
L9.5273 57.8576
" />
<path d="M9.5273 57.8576
L9.6701 57.7861
" />
<path d="M9.6701 57.7861
L9.8844 57.7861
" />
<path d="M9.8844 57.7861
L10.0273 57.8576
" />
<path d="M11.3130 58.7147
L11.1701 58.7861
" />
<path d="M11.1701 58.7861
L10.8844 58.7861
" />
<path d="M10.8844 58.7861
L10.7415 58.7147
" />
<path d="M10.7415 58.7147
L10.6701 58.5718
" />
<path d="M10.6701 58.5718
L10.6701 58.0004
" />
<path d="M10.6701 58.0004
L10.7415 57.8576
" />
<path d="M10.7415 57.8576
L10.8844 57.7861
" />
<path d="M10.8844 57.7861
L11.1701 57.7861
" />
<path d="M11.1701 57.7861
L11.3130 57.8576
" />
<path d="M11.3130 57.8576
L11.3844 58.0004
" />
<path d="M11.3844 58.0004
L11.3844 58.1433
" />
<path d="M11.3844 58.1433
L10.6701 58.2861
" />
<path d="M12.0273 58.7861
L12.0273 57.7861
" />
<path d="M12.0273 58.0718
L12.0987 57.9290
" />
<path d="M12.0987 57.9290
L12.1701 57.8576
" />
<path d="M12.1701 57.8576
L12.3130 57.7861
" />
<path d="M12.3130 57.7861
L12.4558 57.7861
" />
</g><text x="86.0000" y="61.6500"
textLength="8.5071" font-size="2.0000" lengthAdjust="spacingAndGlyphs"
text-anchor="start" opacity="0" stroke-opacity="0">Id: 1/1</text>
<g class="stroked-text"><desc>Id: 1/1</desc>
<path d="M86.4558 61.5861
L86.4558 60.0861
" />
<path d="M87.8130 61.5861
L87.8130 60.0861
" />
<path d="M87.8130 61.5147
L87.6701 61.5861
" />
<path d="M87.6701 61.5861
L87.3844 61.5861
" />
<path d="M87.3844 61.5861
L87.2415 61.5147
" />
<path d="M87.2415 61.5147
L87.1701 61.4433
" />
<path d="M87.1701 61.4433
L87.0987 61.3004
" />
<path d="M87.0987 61.3004
L87.0987 60.8718
" />
<path d="M87.0987 60.8718
L87.1701 60.7290
" />
<path d="M87.1701 60.7290
L87.2415 60.6576
" />
<path d="M87.2415 60.6576
L87.3844 60.5861
" />
<path d="M87.3844 60.5861
L87.6701 60.5861
" />
<path d="M87.6701 60.5861
L87.8130 60.6576
" />
<path d="M88.5273 61.4433
L88.5987 61.5147
" />
<path d="M88.5987 61.5147
L88.5273 61.5861
" />
<path d="M88.5273 61.5861
L88.4558 61.5147
" />
<path d="M88.4558 61.5147
L88.5273 61.4433
" />
<path d="M88.5273 61.4433
L88.5273 61.5861
" />
<path d="M88.5273 60.6576
L88.5987 60.7290
" />
<path d="M88.5987 60.7290
L88.5273 60.8004
" />
<path d="M88.5273 60.8004
L88.4558 60.7290
" />
<path d="M88.4558 60.7290
L88.5273 60.6576
" />
<path d="M88.5273 60.6576
L88.5273 60.8004
" />
<path d="M91.1701 61.5861
L90.3130 61.5861
" />
<path d="M90.7415 61.5861
L90.7415 60.0861
" />
<path d="M90.7415 60.0861
L90.5987 60.3004
" />
<path d="M90.5987 60.3004
L90.4558 60.4433
" />
<path d="M90.4558 60.4433
L90.3130 60.5147
" />
<path d="M92.8844 60.0147
L91.5987 61.9433
" />
<path d="M94.1701 61.5861
L93.3130 61.5861
" />
<path d="M93.7415 61.5861
L93.7415 60.0861
" />
<path d="M93.7415 60.0861
L93.5987 60.3004
" />
<path d="M93.5987 60.3004
L93.4558 60.4433
" />
<path d="M93.4558 60.4433
L93.3130 60.5147
" />
</g><path d="M0.0000 52.5000
L108.0000 52.5000
" />
</g>
<g style="fill:none; 
stroke:#C872AB; stroke-width:0.4000; stroke-opacity:1; 
stroke-linecap:round; stroke-linejoin:round;">
<text x="1.0000" y="55.3000"
textLength="9.6571" font-size="2.6667" lengthAdjust="spacingAndGlyphs"
text-anchor="start" opacity="0" stroke-opacity="0">Title: </text>
<g class="stroked-text"><desc>Title: </desc>
<path d="M1.6917 53.2044
L2.8346 53.2044
" />
<path d="M2.0132 55.2044
L2.2632 53.2044
" />
<path d="M3.2513 55.2044
L3.4179 53.8711
" />
<path d="M3.5013 53.2044
L3.3941 53.2997
" />
<path d="M3.3941 53.2997
L3.4774 53.3949
" />
<path d="M3.4774 53.3949
L3.5846 53.2997
" />
<path d="M3.5846 53.2997
L3.5013 53.2044
" />
<path d="M3.5013 53.2044
L3.4774 53.3949
" />
<path d="M4.0846 53.8711
L4.8465 53.8711
" />
<path d="M4.4536 53.2044
L4.2393 54.9187
" />
<path d="M4.2393 54.9187
L4.3108 55.1092
" />
<path d="M4.3108 55.1092
L4.4893 55.2044
" />
<path d="M4.4893 55.2044
L4.6798 55.2044
" />
<path d="M5.6322 55.2044
L5.4536 55.1092
" />
<path d="M5.4536 55.1092
L5.3822 54.9187
" />
<path d="M5.3822 54.9187
L5.5965 53.2044
" />
<path d="M7.1679 55.1092
L6.9655 55.2044
" />
<path d="M6.9655 55.2044
L6.5846 55.2044
" />
<path d="M6.5846 55.2044
L6.4060 55.1092
" />
<path d="M6.4060 55.1092
L6.3346 54.9187
" />
<path d="M6.3346 54.9187
L6.4298 54.1568
" />
<path d="M6.4298 54.1568
L6.5489 53.9663
" />
<path d="M6.5489 53.9663
L6.7513 53.8711
" />
<path d="M6.7513 53.8711
L7.1322 53.8711
" />
<path d="M7.1322 53.8711
L7.3108 53.9663
" />
<path d="M7.3108 53.9663
L7.3822 54.1568
" />
<path d="M7.3822 54.1568
L7.3584 54.3473
" />
<path d="M7.3584 54.3473
L6.3822 54.5378
" />
<path d="M8.1322 55.0140
L8.2155 55.1092
" />
<path d="M8.2155 55.1092
L8.1084 55.2044
" />
<path d="M8.1084 55.2044
L8.0251 55.1092
" />
<path d="M8.0251 55.1092
L8.1322 55.0140
" />
<path d="M8.1322 55.0140
L8.1084 55.2044
" />
<path d="M8.2632 53.9663
L8.3465 54.0616
" />
<path d="M8.3465 54.0616
L8.2393 54.1568
" />
<path d="M8.2393 54.1568
L8.1560 54.0616
" />
<path d="M8.1560 54.0616
L8.2632 53.9663
" />
<path d="M8.2632 53.9663
L8.2393 54.1568
" />
</g></g>
<g style="fill:none; 
stroke:#C872AB; stroke-width:0.1500; stroke-opacity:1; 
stroke-linecap:round; stroke-linejoin:round;">
<text x="1.0000" y="51.4500"
textLength="38.2214" font-size="2.0000" lengthAdjust="spacingAndGlyphs"
text-anchor="start" opacity="0" stroke-opacity="0">File: SedentaryDetector.kicad_pcb</text>
<g class="stroked-text"><desc>File: SedentaryDetector.kicad_pcb</desc>
<path d="M1.9558 50.6004
L1.4558 50.6004
" />
<path d="M1.4558 51.3861
L1.4558 49.8861
" />
<path d="M1.4558 49.8861
L2.1701 49.8861
" />
<path d="M2.7415 51.3861
L2.7415 50.3861
" />
<path d="M2.7415 49.8861
L2.6701 49.9576
" />
<path d="M2.6701 49.9576
L2.7415 50.0290
" />
<path d="M2.7415 50.0290
L2.8130 49.9576
" />
<path d="M2.8130 49.9576
L2.7415 49.8861
" />
<path d="M2.7415 49.8861
L2.7415 50.0290
" />
<path d="M3.6701 51.3861
L3.5273 51.3147
" />
<path d="M3.5273 51.3147
L3.4558 51.1718
" />
<path d="M3.4558 51.1718
L3.4558 49.8861
" />
<path d="M4.8130 51.3147
L4.6701 51.3861
" />
<path d="M4.6701 51.3861
L4.3844 51.3861
" />
<path d="M4.3844 51.3861
L4.2415 51.3147
" />
<path d="M4.2415 51.3147
L4.1701 51.1718
" />
<path d="M4.1701 51.1718
L4.1701 50.6004
" />
<path d="M4.1701 50.6004
L4.2415 50.4576
" />
<path d="M4.2415 50.4576
L4.3844 50.3861
" />
<path d="M4.3844 50.3861
L4.6701 50.3861
" />
<path d="M4.6701 50.3861
L4.8130 50.4576
" />
<path d="M4.8130 50.4576
L4.8844 50.6004
" />
<path d="M4.8844 50.6004
L4.8844 50.7433
" />
<path d="M4.8844 50.7433
L4.1701 50.8861
" />
<path d="M5.5273 51.2433
L5.5987 51.3147
" />
<path d="M5.5987 51.3147
L5.5273 51.3861
" />
<path d="M5.5273 51.3861
L5.4558 51.3147
" />
<path d="M5.4558 51.3147
L5.5273 51.2433
" />
<path d="M5.5273 51.2433
L5.5273 51.3861
" />
<path d="M5.5273 50.4576
L5.5987 50.5290
" />
<path d="M5.5987 50.5290
L5.5273 50.6004
" />
<path d="M5.5273 50.6004
L5.4558 50.5290
" />
<path d="M5.4558 50.5290
L5.5273 50.4576
" />
<path d="M5.5273 50.4576
L5.5273 50.6004
" />
<path d="M7.3130 51.3147
L7.5273 51.3861
" />
<path d="M7.5273 51.3861
L7.8844 51.3861
" />
<path d="M7.8844 51.3861
L8.0273 51.3147
" />
<path d="M8.0273 51.3147
L8.0987 51.2433
" />
<path d="M8.0987 51.2433
L8.1701 51.1004
" />
<path d="M8.1701 51.1004
L8.1701 50.9576
" />
<path d="M8.1701 50.9576
L8.0987 50.8147
" />
<path d="M8.0987 50.8147
L8.0273 50.7433
" />
<path d="M8.0273 50.7433
L7.8844 50.6718
" />
<path d="M7.8844 50.6718
L7.5987 50.6004
" />
<path d="M7.5987 50.6004
L7.4558 50.5290
" />
<path d="M7.4558 50.5290
L7.3844 50.4576
" />
<path d="M7.3844 50.4576
L7.3130 50.3147
" />
<path d="M7.3130 50.3147
L7.3130 50.1718
" />
<path d="M7.3130 50.1718
L7.3844 50.0290
" />
<path d="M7.3844 50.0290
L7.4558 49.9576
" />
<path d="M7.4558 49.9576
L7.5987 49.8861
" />
<path d="M7.5987 49.8861
L7.9558 49.8861
" />
<path d="M7.9558 49.8861
L8.1701 49.9576
" />
<path d="M9.3844 51.3147
L9.2415 51.3861
" />
<path d="M9.2415 51.3861
L8.9558 51.3861
" />
<path d="M8.9558 51.3861
L8.8130 51.3147
" />
<path d="M8.8130 51.3147
L8.7415 51.1718
" />
<path d="M8.7415 51.1718
L8.7415 50.6004
" />
<path d="M8.7415 50.6004
L8.8130 50.4576
" />
<path d="M8.8130 50.4576
L8.9558 50.3861
" />
<path d="M8.9558 50.3861
L9.2415 50.3861
" />
<path d="M9.2415 50.3861
L9.3844 50.4576
" />
<path d="M9.3844 50.4576
L9.4558 50.6004
" />
<path d="M9.4558 50.6004
L9.4558 50.7433
" />
<path d="M9.4558 50.7433
L8.7415 50.8861
" />
<path d="M10.7415 51.3861
L10.7415 49.8861
" />
<path d="M10.7415 51.3147
L10.5987 51.3861
" />
<path d="M10.5987 51.3861
L10.3130 51.3861
" />
<path d="M10.3130 51.3861
L10.1701 51.3147
" />
<path d="M10.1701 51.3147
L10.0987 51.2433
" />
<path d="M10.0987 51.2433
L10.0273 51.1004
" />
<path d="M10.0273 51.1004
L10.0273 50.6718
" />
<path d="M10.0273 50.6718
L10.0987 50.5290
" />
<path d="M10.0987 50.5290
L10.1701 50.4576
" />
<path d="M10.1701 50.4576
L10.3130 50.3861
" />
<path d="M10.3130 50.3861
L10.5987 50.3861
" />
<path d="M10.5987 50.3861
L10.7415 50.4576
" />
<path d="M12.0273 51.3147
L11.8844 51.3861
" />
<path d="M11.8844 51.3861
L11.5987 51.3861
" />
<path d="M11.5987 51.3861
L11.4558 51.3147
" />
<path d="M11.4558 51.3147
L11.3844 51.1718
" />
<path d="M11.3844 51.1718
L11.3844 50.6004
" />
<path d="M11.3844 50.6004
L11.4558 50.4576
" />
<path d="M11.4558 50.4576
L11.5987 50.3861
" />
<path d="M11.5987 50.3861
L11.8844 50.3861
" />
<path d="M11.8844 50.3861
L12.0273 50.4576
" />
<path d="M12.0273 50.4576
L12.0987 50.6004
" />
<path d="M12.0987 50.6004
L12.0987 50.7433
" />
<path d="M12.0987 50.7433
L11.3844 50.8861
" />
<path d="M12.7415 50.3861
L12.7415 51.3861
" />
<path d="M12.7415 50.5290
L12.8130 50.4576
" />
<path d="M12.8130 50.4576
L12.9558 50.3861
" />
<path d="M12.9558 50.3861
L13.1701 50.3861
" />
<path d="M13.1701 50.3861
L13.3130 50.4576
" />
<path d="M13.3130 50.4576
L13.3844 50.6004
" />
<path d="M13.3844 50.6004
L13.3844 51.3861
" />
<path d="M13.8844 50.3861
L14.4558 50.3861
" />
<path d="M14.0987 49.8861
L14.0987 51.1718
" />
<path d="M14.0987 51.1718
L14.1701 51.3147
" />
<path d="M14.1701 51.3147
L14.3130 51.3861
" />
<path d="M14.3130 51.3861
L14.4558 51.3861
" />
<path d="M15.5987 51.3861
L15.5987 50.6004
" />
<path d="M15.5987 50.6004
L15.5273 50.4576
" />
<path d="M15.5273 50.4576
L15.3844 50.3861
" />
<path d="M15.3844 50.3861
L15.0987 50.3861
" />
<path d="M15.0987 50.3861
L14.9558 50.4576
" />
<path d="M15.5987 51.3147
L15.4558 51.3861
" />
<path d="M15.4558 51.3861
L15.0987 51.3861
" />
<path d="M15.0987 51.3861
L14.9558 51.3147
" />
<path d="M14.9558 51.3147
L14.8844 51.1718
" />
<path d="M14.8844 51.1718
L14.8844 51.0290
" />
<path d="M14.8844 51.0290
L14.9558 50.8861
" />
<path d="M14.9558 50.8861
L15.0987 50.8147
" />
<path d="M15.0987 50.8147
L15.4558 50.8147
" />
<path d="M15.4558 50.8147
L15.5987 50.7433
" />
<path d="M16.3130 51.3861
L16.3130 50.3861
" />
<path d="M16.3130 50.6718
L16.3844 50.5290
" />
<path d="M16.3844 50.5290
L16.4558 50.4576
" />
<path d="M16.4558 50.4576
L16.5987 50.3861
" />
<path d="M16.5987 50.3861
L16.7415 50.3861
" />
<path d="M17.0987 50.3861
L17.4558 51.3861
" />
<path d="M17.8130 50.3861
L17.4558 51.3861
" />
<path d="M17.4558 51.3861
L17.3130 51.7433
" />
<path d="M17.3130 51.7433
L17.2415 51.8147
" />
<path d="M17.2415 51.8147
L17.0987 51.8861
" />
<path d="M18.3844 51.3861
L18.3844 49.8861
" />
<path d="M18.3844 49.8861
L18.7415 49.8861
" />
<path d="M18.7415 49.8861
L18.9558 49.9576
" />
<path d="M18.9558 49.9576
L19.0987 50.1004
" />
<path d="M19.0987 50.1004
L19.1701 50.2433
" />
<path d="M19.1701 50.2433
L19.2415 50.5290
" />
<path d="M19.2415 50.5290
L19.2415 50.7433
" />
<path d="M19.2415 50.7433
L19.1701 51.0290
" />
<path d="M19.1701 51.0290
L19.0987 51.1718
" />
<path d="M19.0987 51.1718
L18.9558 51.3147
" />
<path d="M18.9558 51.3147
L18.7415 51.3861
" />
<path d="M18.7415 51.3861
L18.3844 51.3861
" />
<path d="M20.4558 51.3147
L20.3130 51.3861
" />
<path d="M20.3130 51.3861
L20.0273 51.3861
" />
<path d="M20.0273 51.3861
L19.8844 51.3147
" />
<path d="M19.8844 51.3147
L19.8130 51.1718
" />
<path d="M19.8130 51.1718
L19.8130 50.6004
" />
<path d="M19.8130 50.6004
L19.8844 50.4576
" />
<path d="M19.8844 50.4576
L20.0273 50.3861
" />
<path d="M20.0273 50.3861
L20.3130 50.3861
" />
<path d="M20.3130 50.3861
L20.4558 50.4576
" />
<path d="M20.4558 50.4576
L20.5273 50.6004
" />
<path d="M20.5273 50.6004
L20.5273 50.7433
" />
<path d="M20.5273 50.7433
L19.8130 50.8861
" />
<path d="M20.9558 50.3861
L21.5273 50.3861
" />
<path d="M21.1701 49.8861
L21.1701 51.1718
" />
<path d="M21.1701 51.1718
L21.2415 51.3147
" />
<path d="M21.2415 51.3147
L21.3844 51.3861
" />
<path d="M21.3844 51.3861
L21.5273 51.3861
" />
<path d="M22.5987 51.3147
L22.4558 51.3861
" />
<path d="M22.4558 51.3861
L22.1701 51.3861
" />
<path d="M22.1701 51.3861
L22.0273 51.3147
" />
<path d="M22.0273 51.3147
L21.9558 51.1718
" />
<path d="M21.9558 51.1718
L21.9558 50.6004
" />
<path d="M21.9558 50.6004
L22.0273 50.4576
" />
<path d="M22.0273 50.4576
L22.1701 50.3861
" />
<path d="M22.1701 50.3861
L22.4558 50.3861
" />
<path d="M22.4558 50.3861
L22.5987 50.4576
" />
<path d="M22.5987 50.4576
L22.6701 50.6004
" />
<path d="M22.6701 50.6004
L22.6701 50.7433
" />
<path d="M22.6701 50.7433
L21.9558 50.8861
" />
<path d="M23.9558 51.3147
L23.8130 51.3861
" />
<path d="M23.8130 51.3861
L23.5273 51.3861
" />
<path d="M23.5273 51.3861
L23.3844 51.3147
" />
<path d="M23.3844 51.3147
L23.3130 51.2433
" />
<path d="M23.3130 51.2433
L23.2415 51.1004
" />
<path d="M23.2415 51.1004
L23.2415 50.6718
" />
<path d="M23.2415 50.6718
L23.3130 50.5290
" />
<path d="M23.3130 50.5290
L23.3844 50.4576
" />
<path d="M23.3844 50.4576
L23.5273 50.3861
" />
<path d="M23.5273 50.3861
L23.8130 50.3861
" />
<path d="M23.8130 50.3861
L23.9558 50.4576
" />
<path d="M24.3844 50.3861
L24.9558 50.3861
" />
<path d="M24.5987 49.8861
L24.5987 51.1718
" />
<path d="M24.5987 51.1718
L24.6701 51.3147
" />
<path d="M24.6701 51.3147
L24.8130 51.3861
" />
<path d="M24.8130 51.3861
L24.9558 51.3861
" />
<path d="M25.6701 51.3861
L25.5273 51.3147
" />
<path d="M25.5273 51.3147
L25.4558 51.2433
" />
<path d="M25.4558 51.2433
L25.3844 51.1004
" />
<path d="M25.3844 51.1004
L25.3844 50.6718
" />
<path d="M25.3844 50.6718
L25.4558 50.5290
" />
<path d="M25.4558 50.5290
L25.5273 50.4576
" />
<path d="M25.5273 50.4576
L25.6701 50.3861
" />
<path d="M25.6701 50.3861
L25.8844 50.3861
" />
<path d="M25.8844 50.3861
L26.0273 50.4576
" />
<path d="M26.0273 50.4576
L26.0987 50.5290
" />
<path d="M26.0987 50.5290
L26.1701 50.6718
" />
<path d="M26.1701 50.6718
L26.1701 51.1004
" />
<path d="M26.1701 51.1004
L26.0987 51.2433
" />
<path d="M26.0987 51.2433
L26.0273 51.3147
" />
<path d="M26.0273 51.3147
L25.8844 51.3861
" />
<path d="M25.8844 51.3861
L25.6701 51.3861
" />
<path d="M26.8130 51.3861
L26.8130 50.3861
" />
<path d="M26.8130 50.6718
L26.8844 50.5290
" />
<path d="M26.8844 50.5290
L26.9558 50.4576
" />
<path d="M26.9558 50.4576
L27.0987 50.3861
" />
<path d="M27.0987 50.3861
L27.2415 50.3861
" />
<path d="M27.7415 51.2433
L27.8130 51.3147
" />
<path d="M27.8130 51.3147
L27.7415 51.3861
" />
<path d="M27.7415 51.3861
L27.6701 51.3147
" />
<path d="M27.6701 51.3147
L27.7415 51.2433
" />
<path d="M27.7415 51.2433
L27.7415 51.3861
" />
<path d="M28.4558 51.3861
L28.4558 49.8861
" />
<path d="M28.5987 50.8147
L29.0273 51.3861
" />
<path d="M29.0273 50.3861
L28.4558 50.9576
" />
<path d="M29.6701 51.3861
L29.6701 50.3861
" />
<path d="M29.6701 49.8861
L29.5987 49.9576
" />
<path d="M29.5987 49.9576
L29.6701 50.0290
" />
<path d="M29.6701 50.0290
L29.7415 49.9576
" />
<path d="M29.7415 49.9576
L29.6701 49.8861
" />
<path d="M29.6701 49.8861
L29.6701 50.0290
" />
<path d="M31.0273 51.3147
L30.8844 51.3861
" />
<path d="M30.8844 51.3861
L30.5987 51.3861
" />
<path d="M30.5987 51.3861
L30.4558 51.3147
" />
<path d="M30.4558 51.3147
L30.3844 51.2433
" />
<path d="M30.3844 51.2433
L30.3130 51.1004
" />
<path d="M30.3130 51.1004
L30.3130 50.6718
" />
<path d="M30.3130 50.6718
L30.3844 50.5290
" />
<path d="M30.3844 50.5290
L30.4558 50.4576
" />
<path d="M30.4558 50.4576
L30.5987 50.3861
" />
<path d="M30.5987 50.3861
L30.8844 50.3861
" />
<path d="M30.8844 50.3861
L31.0273 50.4576
" />
<path d="M32.3130 51.3861
L32.3130 50.6004
" />
<path d="M32.3130 50.6004
L32.2415 50.4576
" />
<path d="M32.2415 50.4576
L32.0987 50.3861
" />
<path d="M32.0987 50.3861
L31.8130 50.3861
" />
<path d="M31.8130 50.3861
L31.6701 50.4576
" />
<path d="M32.3130 51.3147
L32.1701 51.3861
" />
<path d="M32.1701 51.3861
L31.8130 51.3861
" />
<path d="M31.8130 51.3861
L31.6701 51.3147
" />
<path d="M31.6701 51.3147
L31.5987 51.1718
" />
<path d="M31.5987 51.1718
L31.5987 51.0290
" />
<path d="M31.5987 51.0290
L31.6701 50.8861
" />
<path d="M31.6701 50.8861
L31.8130 50.8147
" />
<path d="M31.8130 50.8147
L32.1701 50.8147
" />
<path d="M32.1701 50.8147
L32.3130 50.7433
" />
<path d="M33.6701 51.3861
L33.6701 49.8861
" />
<path d="M33.6701 51.3147
L33.5273 51.3861
" />
<path d="M33.5273 51.3861
L33.2415 51.3861
" />
<path d="M33.2415 51.3861
L33.0987 51.3147
" />
<path d="M33.0987 51.3147
L33.0273 51.2433
" />
<path d="M33.0273 51.2433
L32.9558 51.1004
" />
<path d="M32.9558 51.1004
L32.9558 50.6718
" />
<path d="M32.9558 50.6718
L33.0273 50.5290
" />
<path d="M33.0273 50.5290
L33.0987 50.4576
" />
<path d="M33.0987 50.4576
L33.2415 50.3861
" />
<path d="M33.2415 50.3861
L33.5273 50.3861
" />
<path d="M33.5273 50.3861
L33.6701 50.4576
" />
<path d="M34.0273 51.5290
L35.1701 51.5290
" />
<path d="M35.5273 50.3861
L35.5273 51.8861
" />
<path d="M35.5273 50.4576
L35.6701 50.3861
" />
<path d="M35.6701 50.3861
L35.9558 50.3861
" />
<path d="M35.9558 50.3861
L36.0987 50.4576
" />
<path d="M36.0987 50.4576
L36.1701 50.5290
" />
<path d="M36.1701 50.5290
L36.2415 50.6718
" />
<path d="M36.2415 50.6718
L36.2415 51.1004
" />
<path d="M36.2415 51.1004
L36.1701 51.2433
" />
<path d="M36.1701 51.2433
L36.0987 51.3147
" />
<path d="M36.0987 51.3147
L35.9558 51.3861
" />
<path d="M35.9558 51.3861
L35.6701 51.3861
" />
<path d="M35.6701 51.3861
L35.5273 51.3147
" />
<path d="M37.5273 51.3147
L37.3844 51.3861
" />
<path d="M37.3844 51.3861
L37.0987 51.3861
" />
<path d="M37.0987 51.3861
L36.9558 51.3147
" />
<path d="M36.9558 51.3147
L36.8844 51.2433
" />
<path d="M36.8844 51.2433
L36.8130 51.1004
" />
<path d="M36.8130 51.1004
L36.8130 50.6718
" />
<path d="M36.8130 50.6718
L36.8844 50.5290
" />
<path d="M36.8844 50.5290
L36.9558 50.4576
" />
<path d="M36.9558 50.4576
L37.0987 50.3861
" />
<path d="M37.0987 50.3861
L37.3844 50.3861
" />
<path d="M37.3844 50.3861
L37.5273 50.4576
" />
<path d="M38.1701 51.3861
L38.1701 49.8861
" />
<path d="M38.1701 50.4576
L38.3130 50.3861
" />
<path d="M38.3130 50.3861
L38.5987 50.3861
" />
<path d="M38.5987 50.3861
L38.7415 50.4576
" />
<path d="M38.7415 50.4576
L38.8130 50.5290
" />
<path d="M38.8130 50.5290
L38.8844 50.6718
" />
<path d="M38.8844 50.6718
L38.8844 51.1004
" />
<path d="M38.8844 51.1004
L38.8130 51.2433
" />
<path d="M38.8130 51.2433
L38.7415 51.3147
" />
<path d="M38.7415 51.3147
L38.5987 51.3861
" />
<path d="M38.5987 51.3861
L38.3130 51.3861
" />
<path d="M38.3130 51.3861
L38.1701 51.3147
" />
</g><path d="M0.0000 46.5000
L108.0000 46.5000
" />
<text x="1.0000" y="48.7500"
textLength="8.2214" font-size="2.0000" lengthAdjust="spacingAndGlyphs"
text-anchor="start" opacity="0" stroke-opacity="0">Sheet: </text>
<g class="stroked-text"><desc>Sheet: </desc>
<path d="M1.3844 48.6147
L1.5987 48.6861
" />
<path d="M1.5987 48.6861
L1.9558 48.6861
" />
<path d="M1.9558 48.6861
L2.0987 48.6147
" />
<path d="M2.0987 48.6147
L2.1701 48.5433
" />
<path d="M2.1701 48.5433
L2.2415 48.4004
" />
<path d="M2.2415 48.4004
L2.2415 48.2576
" />
<path d="M2.2415 48.2576
L2.1701 48.1147
" />
<path d="M2.1701 48.1147
L2.0987 48.0433
" />
<path d="M2.0987 48.0433
L1.9558 47.9718
" />
<path d="M1.9558 47.9718
L1.6701 47.9004
" />
<path d="M1.6701 47.9004
L1.5273 47.8290
" />
<path d="M1.5273 47.8290
L1.4558 47.7576
" />
<path d="M1.4558 47.7576
L1.3844 47.6147
" />
<path d="M1.3844 47.6147
L1.3844 47.4718
" />
<path d="M1.3844 47.4718
L1.4558 47.3290
" />
<path d="M1.4558 47.3290
L1.5273 47.2576
" />
<path d="M1.5273 47.2576
L1.6701 47.1861
" />
<path d="M1.6701 47.1861
L2.0273 47.1861
" />
<path d="M2.0273 47.1861
L2.2415 47.2576
" />
<path d="M2.8844 48.6861
L2.8844 47.1861
" />
<path d="M3.5273 48.6861
L3.5273 47.9004
" />
<path d="M3.5273 47.9004
L3.4558 47.7576
" />
<path d="M3.4558 47.7576
L3.3130 47.6861
" />
<path d="M3.3130 47.6861
L3.0987 47.6861
" />
<path d="M3.0987 47.6861
L2.9558 47.7576
" />
<path d="M2.9558 47.7576
L2.8844 47.8290
" />
<path d="M4.8130 48.6147
L4.6701 48.6861
" />
<path d="M4.6701 48.6861
L4.3844 48.6861
" />
<path d="M4.3844 48.6861
L4.2415 48.6147
" />
<path d="M4.2415 48.6147
L4.1701 48.4718
" />
<path d="M4.1701 48.4718
L4.1701 47.9004
" />
<path d="M4.1701 47.9004
L4.2415 47.7576
" />
<path d="M4.2415 47.7576
L4.3844 47.6861
" />
<path d="M4.3844 47.6861
L4.6701 47.6861
" />
<path d="M4.6701 47.6861
L4.8130 47.7576
" />
<path d="M4.8130 47.7576
L4.8844 47.9004
" />
<path d="M4.8844 47.9004
L4.8844 48.0433
" />
<path d="M4.8844 48.0433
L4.1701 48.1861
" />
<path d="M6.0987 48.6147
L5.9558 48.6861
" />
<path d="M5.9558 48.6861
L5.6701 48.6861
" />
<path d="M5.6701 48.6861
L5.5273 48.6147
" />
<path d="M5.5273 48.6147
L5.4558 48.4718
" />
<path d="M5.4558 48.4718
L5.4558 47.9004
" />
<path d="M5.4558 47.9004
L5.5273 47.7576
" />
<path d="M5.5273 47.7576
L5.6701 47.6861
" />
<path d="M5.6701 47.6861
L5.9558 47.6861
" />
<path d="M5.9558 47.6861
L6.0987 47.7576
" />
<path d="M6.0987 47.7576
L6.1701 47.9004
" />
<path d="M6.1701 47.9004
L6.1701 48.0433
" />
<path d="M6.1701 48.0433
L5.4558 48.1861
" />
<path d="M6.5987 47.6861
L7.1701 47.6861
" />
<path d="M6.8130 47.1861
L6.8130 48.4718
" />
<path d="M6.8130 48.4718
L6.8844 48.6147
" />
<path d="M6.8844 48.6147
L7.0273 48.6861
" />
<path d="M7.0273 48.6861
L7.1701 48.6861
" />
<path d="M7.6701 48.5433
L7.7415 48.6147
" />
<path d="M7.7415 48.6147
L7.6701 48.6861
" />
<path d="M7.6701 48.6861
L7.5987 48.6147
" />
<path d="M7.5987 48.6147
L7.6701 48.5433
" />
<path d="M7.6701 48.5433
L7.6701 48.6861
" />
<path d="M7.6701 47.7576
L7.7415 47.8290
" />
<path d="M7.7415 47.8290
L7.6701 47.9004
" />
<path d="M7.6701 47.9004
L7.5987 47.8290
" />
<path d="M7.5987 47.8290
L7.6701 47.7576
" />
<path d="M7.6701 47.7576
L7.6701 47.9004
" />
</g></g>
<g style="fill:none; 
stroke:#C872AB; stroke-width:0.3000; stroke-opacity:1; 
stroke-linecap:round; stroke-linejoin:round;">
<text x="1.0000" y="45.7500"
textLength="0.9000" font-size="2.0000" lengthAdjust="spacingAndGlyphs"
text-anchor="start" opacity="0" stroke-opacity="0"></text>
<g class="stroked-text"><desc></desc>
</g></g>
<g style="fill:none; 
stroke:#C872AB; stroke-width:0.1500; stroke-opacity:1; 
stroke-linecap:round; stroke-linejoin:round;">
<text x="1.0000" y="42.7500"
textLength="0.4500" font-size="2.0000" lengthAdjust="spacingAndGlyphs"
text-anchor="start" opacity="0" stroke-opacity="0"></text>
<g class="stroked-text"><desc></desc>
</g><text x="1.0000" y="39.7500"
textLength="0.4500" font-size="2.0000" lengthAdjust="spacingAndGlyphs"
text-anchor="start" opacity="0" stroke-opacity="0"></text>
<g class="stroked-text"><desc></desc>
</g><text x="1.0000" y="36.7500"
textLength="0.4500" font-size="2.0000" lengthAdjust="spacingAndGlyphs"
text-anchor="start" opacity="0" stroke-opacity="0"></text>
<g class="stroked-text"><desc></desc>
</g><text x="1.0000" y="33.7500"
textLength="0.4500" font-size="2.0000" lengthAdjust="spacingAndGlyphs"
text-anchor="start" opacity="0" stroke-opacity="0"></text>
<g class="stroked-text"><desc></desc>
</g><path d="M20.0000 56.5000
L20.0000 59.5000
" />
<path d="M84.0000 56.5000
L84.0000 63.0000
" />
<path style="fill:#C83434; fill-opacity:1.0000; stroke:none;fill-rule:evenodd;"
d="M 39.1500,25.8500
39.1500,24.1500
40.8500,24.1500
40.8500,25.8500
Z" /> 
</g>
<g style="fill:#C83434; fill-opacity:1.0000; stroke:none;">
<circle cx="40.0000" cy="27.5400" r="0.8500" /> 
<circle cx="40.0000" cy="30.0800" r="0.8500" /> 
<circle cx="40.0000" cy="32.6200" r="0.8500" /> 
<circle cx="40.0000" cy="35.1600" r="0.8500" /> 
<circle cx="40.0000" cy="37.7000" r="0.8500" /> 
<circle cx="40.0000" cy="40.2400" r="0.8500" /> 
<circle cx="40.0000" cy="42.7800" r="0.8500" /> 
<circle cx="40.0000" cy="45.3200" r="0.8500" /> 
<circle cx="40.0000" cy="47.8600" r="0.8500" /> 
<circle cx="40.0000" cy="50.4000" r="0.8500" /> 
<circle cx="40.0000" cy="52.9400" r="0.8500" /> 
<circle cx="40.0000" cy="55.4800" r="0.8500" /> 
<circle cx="40.0000" cy="58.0200" r="0.8500" /> 
<circle cx="40.0000" cy="60.5600" r="0.8500" /> 
<circle cx="64.5000" cy="25.0000" r="0.8500" /> 
<circle cx="64.5000" cy="27.5400" r="0.8500" /> 
<circle cx="64.5000" cy="30.0800" r="0.8500" /> 
<circle cx="64.5000" cy="32.6200" r="0.8500" /> 
<circle cx="64.5000" cy="35.1600" r="0.8500" /> 
<circle cx="64.5000" cy="37.7000" r="0.8500" /> 
<circle cx="64.5000" cy="40.2400" r="0.8500" /> 
<circle cx="64.5000" cy="42.7800" r="0.8500" /> 
<circle cx="64.5000" cy="45.3200" r="0.8500" /> 
<circle cx="64.5000" cy="47.8600" r="0.8500" /> 
<circle cx="64.5000" cy="50.4000" r="0.8500" /> 
<circle cx="64.5000" cy="52.9400" r="0.8500" /> 
<circle cx="64.5000" cy="55.4800" r="0.8500" /> 
<circle cx="64.5000" cy="58.0200" r="0.8500" /> 
<circle cx="64.5000" cy="60.5600" r="0.8500" /> 
<circle cx="77.0000" cy="3.0000" r="2.0000" /> 
<circle cx="3.0000" cy="47.0000" r="2.0000" /> 
<circle cx="77.0000" cy="47.0000" r="2.0000" /> 
<circle cx="3.0000" cy="3.0000" r="2.0000" /> 
<path style="fill:#C83434; fill-opacity:1.0000; stroke:none;fill-rule:evenodd;"
d="M 39.1500,43.6300
39.1500,41.9300
40.8500,41.9300
40.8500,43.6300
Z" /> 
<circle cx="40.0000" cy="40.2400" r="0.8500" /> 
<circle cx="40.0000" cy="37.7000" r="0.8500" /> 
<circle cx="40.0000" cy="35.1600" r="0.8500" /> 
<circle cx="40.0000" cy="32.6200" r="0.8500" /> 
<circle cx="40.0000" cy="30.0800" r="0.8500" /> 
<circle cx="40.0000" cy="27.5400" r="0.8500" /> 
<circle cx="40.0000" cy="25.0000" r="0.8500" /> 
<path style="fill:#4D7FC4; fill-opacity:1.0000; stroke:none;fill-rule:evenodd;"
d="M 39.1500,25.8500
39.1500,24.1500
40.8500,24.1500
40.8500,25.8500
Z" /> 
</g>
<g style="fill:#4D7FC4; fill-opacity:1.0000; stroke:none;">
<circle cx="40.0000" cy="27.5400" r="0.8500" /> 
<circle cx="40.0000" cy="30.0800" r="0.8500" /> 
<circle cx="40.0000" cy="32.6200" r="0.8500" /> 
<circle cx="40.0000" cy="35.1600" r="0.8500" /> 
<circle cx="40.0000" cy="37.7000" r="0.8500" /> 
<circle cx="40.0000" cy="40.2400" r="0.8500" /> 
<circle cx="40.0000" cy="42.7800" r="0.8500" /> 
<circle cx="40.0000" cy="45.3200" r="0.8500" /> 
<circle cx="40.0000" cy="47.8600" r="0.8500" /> 
<circle cx="40.0000" cy="50.4000" r="0.8500" /> 
<circle cx="40.0000" cy="52.9400" r="0.8500" /> 
<circle cx="40.0000" cy="55.4800" r="0.8500" /> 
<circle cx="40.0000" cy="58.0200" r="0.8500" /> 
<circle cx="40.0000" cy="60.5600" r="0.8500" /> 
<circle cx="64.5000" cy="25.0000" r="0.8500" /> 
<circle cx="64.5000" cy="27.5400" r="0.8500" /> 
<circle cx="64.5000" cy="30.0800" r="0.8500" /> 
<circle cx="64.5000" cy="32.6200" r="0.8500" /> 
<circle cx="64.5000" cy="35.1600" r="0.8500" /> 
<circle cx="64.5000" cy="37.7000" r="0.8500" /> 
<circle cx="64.5000" cy="40.2400" r="0.8500" /> 
<circle cx="64.5000" cy="42.7800" r="0.8500" /> 
<circle cx="64.5000" cy="45.3200" r="0.8500" /> 
<circle cx="64.5000" cy="47.8600" r="0.8500" /> 
<circle cx="64.5000" cy="50.4000" r="0.8500" /> 
<circle cx="64.5000" cy="52.9400" r="0.8500" /> 
<circle cx="64.5000" cy="55.4800" r="0.8500" /> 
<circle cx="64.5000" cy="58.0200" r="0.8500" /> 
<circle cx="64.5000" cy="60.5600" r="0.8500" /> 
<circle cx="77.0000" cy="3.0000" r="2.0000" /> 
<circle cx="3.0000" cy="47.0000" r="2.0000" /> 
<circle cx="77.0000" cy="47.0000" r="2.0000" /> 
<circle cx="3.0000" cy="3.0000" r="2.0000" /> 
<path style="fill:#4D7FC4; fill-opacity:1.0000; stroke:none;fill-rule:evenodd;"
d="M 39.1500,43.6300
39.1500,41.9300
40.8500,41.9300
40.8500,43.6300
Z" /> 
<circle cx="40.0000" cy="40.2400" r="0.8500" /> 
<circle cx="40.0000" cy="37.7000" r="0.8500" /> 
<circle cx="40.0000" cy="35.1600" r="0.8500" /> 
<circle cx="40.0000" cy="32.6200" r="0.8500" /> 
<circle cx="40.0000" cy="30.0800" r="0.8500" /> 
<circle cx="40.0000" cy="27.5400" r="0.8500" /> 
<circle cx="40.0000" cy="25.0000" r="0.8500" /> 
</g>
<g style="fill:none; 
stroke:#D0D2CD; stroke-width:0.1000; stroke-opacity:1; 
stroke-linecap:round; stroke-linejoin:round;">
<path d="M0.0000 0.0000
L80.0000 0.0000
" />
<path d="M0.0000 50.0000
L0.0000 0.0000
" />
<path d="M80.0000 0.0000
L80.0000 50.0000
" />
<path d="M80.0000 50.0000
L0.0000 50.0000
" />
</g>
<g style="fill:#FFFFFF; fill-opacity:1.0000; stroke:none;">
<circle cx="40.0000" cy="25.0000" r="0.5000" /> 
</g>
<g style="fill:#FFFFFF; fill-opacity:1.0000; stroke:none;">
<circle cx="40.0000" cy="27.5400" r="0.5000" /> 
</g>
<g style="fill:#FFFFFF; fill-opacity:1.0000; stroke:none;">
<circle cx="40.0000" cy="30.0800" r="0.5000" /> 
</g>
<g style="fill:#FFFFFF; fill-opacity:1.0000; stroke:none;">
<circle cx="40.0000" cy="32.6200" r="0.5000" /> 
</g>
<g style="fill:#FFFFFF; fill-opacity:1.0000; stroke:none;">
<circle cx="40.0000" cy="35.1600" r="0.5000" /> 
</g>
<g style="fill:#FFFFFF; fill-opacity:1.0000; stroke:none;">
<circle cx="40.0000" cy="37.7000" r="0.5000" /> 
</g>
<g style="fill:#FFFFFF; fill-opacity:1.0000; stroke:none;">
<circle cx="40.0000" cy="40.2400" r="0.5000" /> 
</g>
<g style="fill:#FFFFFF; fill-opacity:1.0000; stroke:none;">
<circle cx="40.0000" cy="42.7800" r="0.5000" /> 
</g>
<g style="fill:#FFFFFF; fill-opacity:1.0000; stroke:none;">
<circle cx="40.0000" cy="45.3200" r="0.5000" /> 
</g>
<g style="fill:#FFFFFF; fill-opacity:1.0000; stroke:none;">
<circle cx="40.0000" cy="47.8600" r="0.5000" /> 
</g>
<g style="fill:#FFFFFF; fill-opacity:1.0000; stroke:none;">
<circle cx="40.0000" cy="50.4000" r="0.5000" /> 
</g>
<g style="fill:#FFFFFF; fill-opacity:1.0000; stroke:none;">
<circle cx="40.0000" cy="52.9400" r="0.5000" /> 
</g>
<g style="fill:#FFFFFF; fill-opacity:1.0000; stroke:none;">
<circle cx="40.0000" cy="55.4800" r="0.5000" /> 
</g>
<g style="fill:#FFFFFF; fill-opacity:1.0000; stroke:none;">
<circle cx="40.0000" cy="58.0200" r="0.5000" /> 
</g>
<g style="fill:#FFFFFF; fill-opacity:1.0000; stroke:none;">
<circle cx="40.0000" cy="60.5600" r="0.5000" /> 
</g>
<g style="fill:#FFFFFF; fill-opacity:1.0000; stroke:none;">
<circle cx="64.5000" cy="25.0000" r="0.5000" /> 
</g>
<g style="fill:#FFFFFF; fill-opacity:1.0000; stroke:none;">
<circle cx="64.5000" cy="27.5400" r="0.5000" /> 
</g>
<g style="fill:#FFFFFF; fill-opacity:1.0000; stroke:none;">
<circle cx="64.5000" cy="30.0800" r="0.5000" /> 
</g>
<g style="fill:#FFFFFF; fill-opacity:1.0000; stroke:none;">
<circle cx="64.5000" cy="32.6200" r="0.5000" /> 
</g>
<g style="fill:#FFFFFF; fill-opacity:1.0000; stroke:none;">
<circle cx="64.5000" cy="35.1600" r="0.5000" /> 
</g>
<g style="fill:#FFFFFF; fill-opacity:1.0000; stroke:none;">
<circle cx="64.5000" cy="37.7000" r="0.5000" /> 
</g>
<g style="fill:#FFFFFF; fill-opacity:1.0000; stroke:none;">
<circle cx="64.5000" cy="40.2400" r="0.5000" /> 
</g>
<g style="fill:#FFFFFF; fill-opacity:1.0000; stroke:none;">
<circle cx="64.5000" cy="42.7800" r="0.5000" /> 
</g>
<g style="fill:#FFFFFF; fill-opacity:1.0000; stroke:none;">
<circle cx="64.5000" cy="45.3200" r="0.5000" /> 
</g>
<g style="fill:#FFFFFF; fill-opacity:1.0000; stroke:none;">
<circle cx="64.5000" cy="47.8600" r="0.5000" /> 
</g>
<g style="fill:#FFFFFF; fill-opacity:1.0000; stroke:none;">
<circle cx="64.5000" cy="50.4000" r="0.5000" /> 
</g>
<g style="fill:#FFFFFF; fill-opacity:1.0000; stroke:none;">
<circle cx="64.5000" cy="52.9400" r="0.5000" /> 
</g>
<g style="fill:#FFFFFF; fill-opacity:1.0000; stroke:none;">
<circle cx="64.5000" cy="55.4800" r="0.5000" /> 
</g>
<g style="fill:#FFFFFF; fill-opacity:1.0000; stroke:none;">
<circle cx="64.5000" cy="58.0200" r="0.5000" /> 
</g>
<g style="fill:#FFFFFF; fill-opacity:1.0000; stroke:none;">
<circle cx="64.5000" cy="60.5600" r="0.5000" /> 
</g>
<g style="fill:#FFFFFF; fill-opacity:1.0000; stroke:none;">
<circle cx="77.0000" cy="3.0000" r="1.6000" /> 
</g>
<g style="fill:#FFFFFF; fill-opacity:1.0000; stroke:none;">
<circle cx="3.0000" cy="47.0000" r="1.6000" /> 
</g>
<g style="fill:#FFFFFF; fill-opacity:1.0000; stroke:none;">
<circle cx="77.0000" cy="47.0000" r="1.6000" /> 
</g>
<g style="fill:#FFFFFF; fill-opacity:1.0000; stroke:none;">
<circle cx="3.0000" cy="3.0000" r="1.6000" /> 
</g>
<g style="fill:#FFFFFF; fill-opacity:1.0000; stroke:none;">
<circle cx="40.0000" cy="42.7800" r="0.5000" /> 
</g>
<g style="fill:#FFFFFF; fill-opacity:1.0000; stroke:none;">
<circle cx="40.0000" cy="40.2400" r="0.5000" /> 
</g>
<g style="fill:#FFFFFF; fill-opacity:1.0000; stroke:none;">
<circle cx="40.0000" cy="37.7000" r="0.5000" /> 
</g>
<g style="fill:#FFFFFF; fill-opacity:1.0000; stroke:none;">
<circle cx="40.0000" cy="35.1600" r="0.5000" /> 
</g>
<g style="fill:#FFFFFF; fill-opacity:1.0000; stroke:none;">
<circle cx="40.0000" cy="32.6200" r="0.5000" /> 
</g>
<g style="fill:#FFFFFF; fill-opacity:1.0000; stroke:none;">
<circle cx="40.0000" cy="30.0800" r="0.5000" /> 
</g>
<g style="fill:#FFFFFF; fill-opacity:1.0000; stroke:none;">
<circle cx="40.0000" cy="27.5400" r="0.5000" /> 
</g>
<g style="fill:#FFFFFF; fill-opacity:1.0000; stroke:none;">
<circle cx="40.0000" cy="25.0000" r="0.5000" /> 
</g> 
</svg>
